<svg width="53" height="50" viewBox="0 0 53 50" fill="none" xmlns="http://www.w3.org/2000/svg">
<path d="M25.1927 1.39058C25.6417 0.00861096 27.5968 0.00861073 28.0459 1.39058L33.157 17.1209C33.3578 17.739 33.9337 18.1574 34.5836 18.1574H51.1234C52.5765 18.1574 53.1807 20.0168 52.0051 20.8709L38.6241 30.5928C38.0983 30.9748 37.8784 31.6518 38.0792 32.2699L43.1903 48.0002C43.6393 49.3822 42.0576 50.5314 40.882 49.6773L27.501 39.9554C26.9752 39.5734 26.2633 39.5734 25.7376 39.9554L12.3566 49.6773C11.181 50.5314 9.59928 49.3822 10.0483 48.0002L15.1594 32.2699C15.3602 31.6518 15.1402 30.9748 14.6145 30.5928L1.23346 20.8709C0.0578923 20.0168 0.662056 18.1574 2.11514 18.1574H18.655C19.3049 18.1574 19.8808 17.739 20.0816 17.1209L25.1927 1.39058Z" fill="#FFDA85"/>
</svg>
