<svg width="40" height="40" viewBox="0 0 40 40" fill="none" xmlns="http://www.w3.org/2000/svg">
<mask id="mask0_942_141" style="mask-type:alpha" maskUnits="userSpaceOnUse" x="0" y="0" width="40" height="40">
<rect width="40" height="40" fill="#D9D9D9"/>
</mask>
<g mask="url(#mask0_942_141)">
<path d="M8.33301 35C6.94434 35 5.76401 34.514 4.79201 33.542C3.81934 32.5693 3.33301 31.3887 3.33301 30V18.333C3.33301 16.9443 3.81934 15.764 4.79201 14.792C5.76401 13.8193 6.94434 13.333 8.33301 13.333C9.08301 13.333 9.77067 13.486 10.396 13.792C11.0207 14.0973 11.5693 14.5 12.042 15H13.333V9.45799C13.333 8.68066 13.604 8.02099 14.146 7.47899C14.6873 6.93766 15.347 6.66699 16.125 6.66699H27.208C27.986 6.66699 28.646 6.93766 29.188 7.47899C29.7293 8.02099 30 8.68066 30 9.45799V15H32.208C33.458 15 34.5137 15.4307 35.375 16.292C36.2363 17.1527 36.667 18.208 36.667 19.458V30.542C36.667 31.3193 36.396 31.979 35.854 32.521C35.3127 33.0623 34.653 33.333 33.875 33.333H12.042C11.5693 33.833 11.0207 34.236 10.396 34.542C9.77067 34.8473 9.08301 35 8.33301 35ZM8.33301 32.208C8.97234 32.208 9.50034 31.9997 9.91701 31.583C10.3337 31.1663 10.542 30.6387 10.542 30V18.333C10.542 17.6943 10.3337 17.1667 9.91701 16.75C9.50034 16.3333 8.97234 16.125 8.33301 16.125C7.69434 16.125 7.16667 16.3333 6.75001 16.75C6.33334 17.1667 6.12501 17.6943 6.12501 18.333V30C6.12501 30.6387 6.33334 31.1663 6.75001 31.583C7.16667 31.9997 7.69434 32.208 8.33301 32.208ZM16.125 15H27.208V9.45799H16.125V15ZM13.333 30.542H33.875V19.458C33.875 18.986 33.7153 18.5903 33.396 18.271C33.0767 17.9517 32.6807 17.792 32.208 17.792H13.333V30.542ZM25 23.333C25.472 23.333 25.868 23.1733 26.188 22.854C26.5073 22.5347 26.667 22.139 26.667 21.667C26.667 21.1943 26.5073 20.7983 26.188 20.479C25.868 20.1597 25.472 20 25 20C24.528 20 24.132 20.1597 23.812 20.479C23.4927 20.7983 23.333 21.1943 23.333 21.667C23.333 22.139 23.4927 22.5347 23.812 22.854C24.132 23.1733 24.528 23.333 25 23.333ZM30 23.333C30.472 23.333 30.868 23.1733 31.188 22.854C31.5073 22.5347 31.667 22.139 31.667 21.667C31.667 21.1943 31.5073 20.7983 31.188 20.479C30.868 20.1597 30.472 20 30 20C29.528 20 29.132 20.1597 28.812 20.479C28.4927 20.7983 28.333 21.1943 28.333 21.667C28.333 22.139 28.4927 22.5347 28.812 22.854C29.132 23.1733 29.528 23.333 30 23.333ZM25 28.333C25.472 28.333 25.868 28.1733 26.188 27.854C26.5073 27.5347 26.667 27.139 26.667 26.667C26.667 26.1943 26.5073 25.7983 26.188 25.479C25.868 25.1597 25.472 25 25 25C24.528 25 24.132 25.1597 23.812 25.479C23.4927 25.7983 23.333 26.1943 23.333 26.667C23.333 27.139 23.4927 27.5347 23.812 27.854C24.132 28.1733 24.528 28.333 25 28.333ZM30 28.333C30.472 28.333 30.868 28.1733 31.188 27.854C31.5073 27.5347 31.667 27.139 31.667 26.667C31.667 26.1943 31.5073 25.7983 31.188 25.479C30.868 25.1597 30.472 25 30 25C29.528 25 29.132 25.1597 28.812 25.479C28.4927 25.7983 28.333 26.1943 28.333 26.667C28.333 27.139 28.4927 27.5347 28.812 27.854C29.132 28.1733 29.528 28.333 30 28.333ZM15.542 28.333H21.667V20H15.542V28.333Z" fill="#1C1B1F"/>
</g>
</svg>
