<svg width="30" height="30" viewBox="0 0 30 30" fill="none" xmlns="http://www.w3.org/2000/svg">
<path d="M28.458 14.792C28.0973 14.792 27.778 14.667 27.5 14.417C27.222 14.167 27.0553 13.8473 27 13.458C26.6387 10.708 25.472 8.347 23.5 6.375C21.528 4.403 19.153 3.22233 16.375 2.833C16.0137 2.77767 15.7013 2.618 15.438 2.354C15.174 2.09 15.042 1.76367 15.042 1.375C15.042 0.986333 15.1807 0.653 15.458 0.375C15.736 0.097 16.0693 -0.0140002 16.458 0.0419998C19.986 0.430666 22.993 1.875 25.479 4.375C27.965 6.875 29.4027 9.875 29.792 13.375C29.8473 13.7637 29.736 14.097 29.458 14.375C29.1807 14.653 28.8473 14.792 28.458 14.792ZM21.333 14.792C21.0277 14.792 20.75 14.6947 20.5 14.5C20.25 14.3053 20.0833 14.0277 20 13.667C19.722 12.7503 19.2427 11.9517 18.562 11.271C17.882 10.5903 17.0837 10.125 16.167 9.875C15.8337 9.76367 15.5627 9.597 15.354 9.375C15.146 9.153 15.042 8.87533 15.042 8.542C15.042 8.06933 15.2017 7.69433 15.521 7.417C15.8403 7.139 16.2083 7.04167 16.625 7.125C18.153 7.48633 19.4653 8.21567 20.562 9.313C21.6593 10.4097 22.3887 11.722 22.75 13.25C22.8613 13.6667 22.771 14.0277 22.479 14.333C22.1877 14.639 21.8057 14.792 21.333 14.792ZM28.167 30C24.7223 30 21.3127 29.1807 17.938 27.542C14.5627 25.9027 11.5487 23.7567 8.896 21.104C6.24333 18.4513 4.09733 15.4373 2.458 12.062C0.819334 8.68733 0 5.27767 0 1.833C0 1.30567 0.173667 0.868333 0.521 0.521C0.868333 0.173667 1.30567 0 1.833 0H7.958C8.34733 0 8.69467 0.132 9 0.396C9.30533 0.66 9.486 1.00033 9.542 1.417L10.667 6.875C10.7223 7.26367 10.7153 7.618 10.646 7.938C10.5767 8.25733 10.4307 8.528 10.208 8.75L6.083 12.917C7.49967 15.3057 9.14567 17.4307 11.021 19.292C12.8957 21.1527 14.9997 22.736 17.333 24.042L21.292 20.042C21.542 19.736 21.8543 19.5207 22.229 19.396C22.6043 19.2707 22.9863 19.2497 23.375 19.333L28.583 20.458C28.9997 20.5413 29.34 20.7427 29.604 21.062C29.868 21.382 30 21.7503 30 22.167V28.167C30 28.6943 29.8263 29.1317 29.479 29.479C29.1317 29.8263 28.6943 30 28.167 30ZM4.708 10.333L7.875 7.125L7 2.792H2.792C2.84733 3.87533 3.02767 5.035 3.333 6.271C3.639 7.507 4.09733 8.861 4.708 10.333ZM27.208 27.208V23L23.042 22.125L19.958 25.375C21.0693 25.875 22.257 26.2847 23.521 26.604C24.785 26.9233 26.014 27.1247 27.208 27.208Z" fill="#1C1B1F"/>
</svg>
