<svg width="40" height="40" viewBox="0 0 40 40" fill="none" xmlns="http://www.w3.org/2000/svg">
<mask id="mask0_942_123" style="mask-type:alpha" maskUnits="userSpaceOnUse" x="0" y="0" width="40" height="40">
<rect width="40" height="40" fill="#D9D9D9"/>
</mask>
<g mask="url(#mask0_942_123)">
<path d="M20 24.708C21.472 24.708 22.7983 24.361 23.979 23.667C25.1597 22.9723 26.0973 22.0417 26.792 20.875C25.8473 20.125 24.7987 19.5627 23.646 19.188C22.4933 18.8127 21.278 18.625 20 18.625C18.722 18.625 17.5067 18.8127 16.354 19.188C15.2013 19.5627 14.1527 20.125 13.208 20.875C13.9027 22.0417 14.8403 22.9723 16.021 23.667C17.2017 24.361 18.528 24.708 20 24.708ZM20 16.375C20.8333 16.375 21.5487 16.0763 22.146 15.479C22.7433 14.8817 23.042 14.1663 23.042 13.333C23.042 12.4997 22.7433 11.7847 22.146 11.188C21.5487 10.5907 20.8333 10.292 20 10.292C19.1667 10.292 18.4513 10.5907 17.854 11.188C17.2567 11.7847 16.958 12.4997 16.958 13.333C16.958 14.1663 17.2567 14.8817 17.854 15.479C18.4513 16.0763 19.1667 16.375 20 16.375ZM20 33C23.5833 29.722 26.236 26.7497 27.958 24.083C29.6807 21.4163 30.542 19.0553 30.542 17C30.542 13.8053 29.528 11.1943 27.5 9.16701C25.472 7.13901 22.972 6.12501 20 6.12501C17.028 6.12501 14.528 7.13901 12.5 9.16701C10.472 11.1943 9.45799 13.8053 9.45799 17C9.45799 19.0553 10.333 21.4163 12.083 24.083C13.833 26.7497 16.472 29.722 20 33ZM20 36.125C19.8053 36.125 19.618 36.0903 19.438 36.021C19.2573 35.9517 19.0973 35.8613 18.958 35.75C14.8473 32.1387 11.771 28.7847 9.72899 25.688C7.68766 22.5907 6.66699 19.6947 6.66699 17C6.66699 12.8333 8.00733 9.51401 10.688 7.04201C13.368 4.56934 16.472 3.33301 20 3.33301C23.528 3.33301 26.632 4.56934 29.312 7.04201C31.9927 9.51401 33.333 12.8333 33.333 17C33.333 19.6947 32.3123 22.5907 30.271 25.688C28.229 28.7847 25.1527 32.1387 21.042 35.75C20.9027 35.8613 20.7427 35.9517 20.562 36.021C20.382 36.0903 20.1947 36.125 20 36.125Z" fill="#1C1B1F"/>
</g>
</svg>
