<svg width="106" height="106" viewBox="0 0 106 106" fill="none" xmlns="http://www.w3.org/2000/svg">
<path d="M91.6494 105.45C89.9494 105.45 88.3244 105.125 86.7744 104.475C85.2244 103.825 83.7994 102.85 82.4994 101.55L49.0494 67.8C46.7494 68.6 44.4494 69.25 42.1494 69.75C39.8494 70.25 37.4994 70.5 35.0994 70.5C25.3994 70.5 17.1494 67.125 10.3494 60.375C3.54941 53.625 0.149414 45.4 0.149414 35.7C0.149414 32.6 0.549413 29.575 1.34941 26.625C2.14941 23.675 3.29941 20.9 4.79941 18.3L26.5494 40.05L40.3494 27.15L17.9994 4.8C20.5994 3.3 23.3494 2.125 26.2494 1.275C29.1494 0.425001 32.0994 0 35.0994 0C44.9994 0 53.4244 3.475 60.3744 10.425C67.3244 17.375 70.7994 25.8 70.7994 35.7C70.7994 38.1 70.5494 40.45 70.0494 42.75C69.5494 45.05 68.8994 47.35 68.0994 49.65L101.249 82.8C102.549 84.1 103.524 85.575 104.174 87.225C104.824 88.875 105.149 90.6 105.149 92.4C105.149 94.2 104.799 95.925 104.099 97.575C103.399 99.225 102.349 100.65 100.949 101.85C99.5494 103.05 98.0744 103.95 96.5244 104.55C94.9744 105.15 93.3494 105.45 91.6494 105.45ZM88.9494 95.25C89.7494 96.05 90.7494 96.45 91.9494 96.45C93.1494 96.45 94.1494 96.05 94.9494 95.25C95.7494 94.45 96.1494 93.45 96.1494 92.25C96.1494 91.05 95.7494 90.05 94.9494 89.25L56.9994 51.3C58.5994 49.2 59.7994 46.725 60.5994 43.875C61.3994 41.025 61.7994 38.3 61.7994 35.7C61.7994 28.2 59.0244 21.85 53.4744 16.65C47.9244 11.45 41.5994 8.8 34.4994 8.7L49.6494 24.15C50.5494 25.05 50.9994 26.15 50.9994 27.45C50.9994 28.75 50.5494 29.85 49.6494 30.75L29.8494 49.35C28.9494 50.25 27.8494 50.7 26.5494 50.7C25.2494 50.7 24.1494 50.25 23.2494 49.35L8.69941 34.95C8.99941 42.65 11.7244 49 16.8744 54C22.0244 59 28.0994 61.5 35.0994 61.5C37.5994 61.5 40.2494 61.1 43.0494 60.3C45.8494 59.5 48.2994 58.3 50.3994 56.7L88.9494 95.25Z" fill="white"/>
</svg>
